<?xml version="1.0" encoding="UTF-8" standalone="no"?>
<svg id="svg4284" xmlns:rdf="http://www.w3.org/1999/02/22-rdf-syntax-ns#" xmlns="http://www.w3.org/2000/svg" height="94.216mm" width="225.78mm" version="1.1" xmlns:cc="http://creativecommons.org/ns#" xmlns:xlink="http://www.w3.org/1999/xlink" viewBox="0 0 800.00003 333.83507" xmlns:dc="http://purl.org/dc/elements/1.1/">
<defs id="defs4286">
<linearGradient id="linearGradient2531" y2="100.11" xlink:href="#linearGradient2320" gradientUnits="userSpaceOnUse" x2="27.286" gradientTransform="translate(400)" y1="97.341" x1="26.465"/>
<linearGradient id="linearGradient2320">
<stop id="stop2322" stop-color="#6a3c1d" offset="0"/>
<stop id="stop2324" stop-color="#8f5127" offset="1"/>
</linearGradient>
<linearGradient id="linearGradient2535" y2="94.746" xlink:href="#linearGradient2320" gradientUnits="userSpaceOnUse" x2="25.686" gradientTransform="translate(400)" y1="95.654" x1="25.73"/>
<linearGradient id="linearGradient2539" y2="88.692" xlink:href="#linearGradient2320" gradientUnits="userSpaceOnUse" x2="30.249" gradientTransform="translate(400)" y1="93.016" x1="26.076"/>
<linearGradient id="linearGradient2545" y2="88.865" xlink:href="#linearGradient2320" gradientUnits="userSpaceOnUse" x2="26.508" gradientTransform="translate(400)" y1="83.589" x1="26.119"/>
<linearGradient id="linearGradient2549" y2="82.378" xlink:href="#linearGradient2320" gradientUnits="userSpaceOnUse" x2="24.086" gradientTransform="translate(400)" y1="85.578" x1="23.568"/>
<linearGradient id="linearGradient3134" y2="93.016" xlink:href="#linearGradient2320" gradientUnits="userSpaceOnUse" x2="19.546" gradientTransform="translate(400)" y1="87.741" x1="24.735"/>
<linearGradient id="linearGradient3138" y2="93.508" xlink:href="#linearGradient2320" gradientUnits="userSpaceOnUse" x2="35.715" gradientTransform="translate(400)" y1="89.228" x1="39.995"/>
</defs>
<g id="layer1" transform="translate(11.587 -330.99)">
<g id="g4272" fill-rule="evenodd" transform="matrix(17.379 0 0 17.379 -7105.1 -1084.3)">
<g>
<path id="path2529" d="m408.56 88.303 1.5568 5.4054 1.5568 2.4216 2.2919 1.6432 3.6324 1.2541 2.3784 0.38919 1.8595 0.38919 2.8108 0.3027 5.1892 0.0935 3.8054-0.12973 3.8919-0.48264 2.8973-0.25946 4.1514-1.1243 3.1135-1.0811 3.027-3.027 3.2865-5.3189-0.77838 0.34595-1.9459 1.427-1.946 1.2108-3.2 1.1676-5.7946 1.5568-3.4162 0.51892s-5.7081 0.95135-5.8811 0.90811c-0.17-0.043-4.41 0.087-4.41 0.087l-5.5784-0.56216s-3.6324-1.0378-4.0649-1.1676c-0.43243-0.12973-4.0649-1.9459-4.0649-1.9459l-3.027-2.4216z" fill="url(#linearGradient2531)"/>
<path id="path2533" d="m408.74 87.697 1.773 1.773 3.6757 2.8108 4.1081 1.427 6.3568 1.0811 5.7081-0.04324 5.6649-0.51892 4.4973-0.69189 4.8865-1.1243 4.627-2.0324 3.0703-1.3838-0.73513 0.64865-1.5135 1.1676-2.4649 1.2973-4.3676 1.4703-6.7459 1.5135-5.6649 0.73514-4.2811 0.25946-5.9676-0.56216-5.0595-1.3405-2.8973-1.6-1.8162-1.2108-1.9027-1.6865-0.90811-0.95135-0.0432-1.0378z" fill="url(#linearGradient2535)"/>
<path id="path2537" d="m411.59 90.076 3.7189-0.95135 5.2757-0.99459 7.3081-0.17297 7.9135 0.47568 8.6054 1.3838 4.4973 1.0811-1.8595 0.77838-5.5351 1.6865-8.4324 1.2108-4.5838 0.3027-6.1838-0.43243-5.1027-1.0811-5.4054-2.6378-0.21621-0.64865z" fill="url(#linearGradient2539)"/>
<path id="path2543" d="m411.59 90.162 2.9405-0.99459 6.0973-0.90811l4.71-0.259 10.508 0.56216 8.9514 1.427 4.1514 0.90811 4.5838-2.0757-3.0703-2.3784-6.573-2.2486-3.027-0.60541s-5.7081-0.47568-6.3135-0.47568-7.1351-0.43243-7.5676-0.3027c-0.43243 0.12973-7.5676 0.43243-7.5676 0.43243l-2.8541 0.43243-2.9405 0.82162-1.9459 0.77838-2.0757 1.2541-0.69189 0.86486 0.51892 0.99459 1.6 1.6432 0.56216 0.12973z" fill="url(#linearGradient2545)"/>
<path id="path2547" d="m408.56 86.832 1.3838-1.1676 2.6811-1.6865 5.5351-1.7297 5.6649-0.60541 6.5297 0.12973 6.3568 0.38919 7.0486 0.86486 4.6703 1.4703 3.9351 2.0324 1.5568 1.8162-0.51892 0.12973-4.7568-2.8541-6.4432-1.773-7.4811-0.86486-8.0865-0.17297-4.8 0.17297-3.5892 0.38919-4.1514 0.95135-2.5081 0.95135-2.4649 1.773-0.56216-0.21622z" fill="url(#linearGradient2549)"/>
</g>
<path id="path2551" d="m408.56 88.303 1.5568 5.4054 1.5568 2.4216 2.2919 1.6432 3.6324 1.2541 2.3784 0.38919 1.8595 0.38919 2.8108 0.3027 5.1892 0.30519 3.8054-0.5197 3.8919-0.30441 2.8973-0.25946 4.1514-1.1243 3.1135-1.0811 3.027-3.027 3.2865-5.3189-0.77838 0.34595-1.9459 1.427-1.946 1.2108-3.2 1.1676-5.7946 1.5568-3.4162 0.51892s-5.7081 0.95135-5.8811 0.90811c-0.17-0.052-4.41 0.078-4.41 0.078l-5.5784-0.56216s-3.6324-1.0378-4.0649-1.1676c-0.43243-0.12973-4.0649-1.9459-4.0649-1.9459l-3.027-2.4216z" fill-opacity=".15686"/>
<path id="path2553" d="m411.59 90.162 2.9405-0.99459 6.0973-0.90811l4.71-0.259 10.508 0.56216 8.9514 1.427 4.1514 0.90811 4.5838-2.0757-3.0703-2.3784-6.573-2.2486-3.027-0.60541s-5.7081-0.47568-6.3135-0.47568-7.1351-0.43243-7.5676-0.3027c-0.43243 0.12973-7.5676 0.43243-7.5676 0.43243l-2.8541 0.43243-2.9405 0.82162-1.9459 0.77838-2.0757 1.2541-0.69189 0.86486 0.51892 0.99459 1.6 1.6432 0.56216 0.12973z" fill-opacity=".15686"/>
<g>
<path id="path3132" d="m418.85 93.492 2.9838-7.4811 3.8054 0.08649-2.9405 8.2595-3.4595-0.51892-0.38919-0.34595z" fill="url(#linearGradient3134)"/>
<path id="path3136" d="m433.47 94.357 3.5027-8.2595 4.8 0.56216-2.5946 7.0486-5.7081 0.64865z" fill="url(#linearGradient3138)"/>
<path id="path2309" d="m425.28 81.438c-7.0658 0.21082-13.237 1.7702-16.5 5.0938-0.54961-0.16696-0.54653 0.80423-0.625 0.90625 0.49964 3.4473 1.4468 6.3528 3.5859 9.0938 2.3602 2.1314 3.4244 2.6207 12.312 4.0153 5.1474 0.20078 9.1347 0.0683 10.445-0.15572 4.7447-0.39542 9.5483-1.7223 13.312-3.2658 2.9121-2.3026 4.82-5.1523 6.375-8.4375l-0.0312-0.25c-0.25595-0.82421-0.99584-1.3302-1.7188-1.9062-5.295-3.6735-11.688-4.1548-17.875-4.6562-2.9572-0.22536-6.1352-0.45356-9.2812-0.4375zm-0.375 0.4375c3.5971-0.03885 6.7438 0.33965 9.4375 0.46875 6.0769 0.66362 12.651 0.9635 17.906 4.4062 0.59701 0.38666 1.0824 1.0496 1.3438 1.6875-5.6567-4.8279-13.363-5.1908-20.5-5.7188-7.1983-0.166-18.468-0.51792-24 4.0625 2.1766-3.1387 10.417-4.848 15.812-4.9062zm1.0625 1.1875c2.2984-0.01593 4.592 0.08501 6.75 0.21875 11.463 0.30579 17.049 2.516 20.531 5.4375-0.0436 0.04071-0.0813 0.08485-0.125 0.125-0.0709 0.03966-0.14684 0.08581-0.21875 0.125-6.4164-2.9745-15.61-4.8223-24.688-4.9375-6.5442-0.08305-13.014 0.75368-18.344 2.6875 3.4735-2.7778 9.7769-3.6125 16.094-3.6562zm1.9062 1.0938c9.0346 0.0326 18.314 1.808 24.719 4.9375-0.18708 0.09859-0.36931 0.21668-0.5625 0.3125-3.0552-1.0497-6.4811-1.9682-10.094-2.6875l0.0937-0.28125-2.9375-0.25h-0.0312c-4.6763-0.76718-9.5682-1.1792-14.281-1.0625-2.9162 0.07221-5.7482 0.3899-8.4375 0.90625 6.0789-1.075 13.599-0.85221 20.406 0.03125l-0.40625 1c-3.5033-0.47292-7.0278-0.71652-10.531-0.65625l0.19-0.47-4.31-0.188-0.34375 0.90625c-3.7429 0.37905-7.4278 1.1606-10.969 2.5-0.3086-0.31739-0.58825-0.6217-0.875-0.96875 0.915-0.47549 1.9356-0.90273 3.0312-1.25-1.0796 0.32339-2.1268 0.67467-3.125 1.0938-0.14048-0.17176-0.32129-0.35567-0.4375-0.5 0.1168-0.12546 0.24845-0.25599 0.375-0.375 5.1591-2.0687 11.774-3.0244 18.531-3zm-5.9375 2 3.375 0.15625-2.8438 7.875c-0.0988 0.18983-2.581-0.41268-3.375-0.59375zm15.156 0.125 4.3125 0.46875-2.4375 6.8438c-1.6316 0.30659-3.2807 0.51121-4.9062 0.6875zm-11.34 0.311c3.5202-0.03359 7.1137 0.20326 10.531 0.625l-0.4375 1.0625c-3.1988-0.3114-7.295-0.50622-10.531-0.5zm-4.5 0.25-0.46875 1.1875c-3.0651 0.27883-7.0321 1.0449-9.4688 1.9062-0.20436-0.09307-0.46048-0.3164-0.71875-0.5625 3.0018-1.4084 6.701-2.1846 10.656-2.5312zm20.625 0.03125c3.984 0.75158 7.4501 1.6992 9.8438 2.6875-0.34385 0.16533-0.70175 0.31039-1.0625 0.46875-2.9837-0.79484-6.0658-1.5292-9.1875-2.125zm-0.46875 1.1562c3.4644 0.6287 6.5441 1.3902 8.875 2.1562-0.40543 0.17312-0.79545 0.36427-1.2188 0.53125-2.3035-0.51333-5.0932-1.2204-8.0312-1.6562zm-16.25 0.1875c3.1555 0.0038 7.3338 0.2896 10.469 0.59375l-0.46875 1.125-10.406-0.625zm-4.5625 0.25-0.25 0.59375-2.7812-0.1875c1.045-0.18142 2.0746-0.31829 3.0312-0.40625zm-11.438 0.09375c4.2361 5.1755 11.964 6.6539 20.062 6.5 8.5879-1.0386 11.824 0.07367 23.062-5.4688-1.3626 1.1135-2.8269 1.9783-4.5 2.6562-3.5144 1.3761-8.6415 2.3956-13.531 3.0938-4.8897 0.69813-10.026 0.73215-14.562-0.46875-4.0106-0.95271-8.9841-3.6809-10.531-6.3125zm44.46 0.438c-0.23921 0.47805-0.5621 1.0439-0.90625 1.625-7.5753 4.0031-16.4 6.1711-25.25 5.875-5.8617-0.42469-13.455-0.88063-17.75-5.4062-0.14101-0.54133-0.28327-1.0758-0.40625-1.625 2.649 3.2687 6.3289 4.8288 10.281 5.875 4.7226 1.2501 9.7383 1.0236 14.719 0.3125 4.9805-0.71109 9.8833-1.7211 13.469-3.125 1.7921-0.62568 4.3373-2.0662 5.8438-3.5312zm-37.188 0.09375 3.8125 0.21875-0.5 1.25-7.6562-0.375c1.2358-0.39605 2.7575-0.77929 4.3438-1.0938zm8.2188 0.46875 10.438 0.5625l-0.47 1.155-10.4-0.531zm16.188 0.0625c1.9474 0.28057 3.7019 0.61293 5.375 0.9375l-5.6-0.345zm-0.28125 0.75 6.6562 0.375c0.37522 0.07685 0.79726 0.14055 1.1562 0.21875-0.76456 0.28676-1.567 0.55123-2.375 0.8125l-5.84-0.282zm-28.5 0.1875 7.5312 0.34375-0.4375 1.125l-5.09-0.283c-0.70849-0.36106-1.3752-0.74606-2-1.1875zm40.531 0.3125c-0.29642 0.48873-0.63733 0.9805-1 1.5-7.37 3.7049-15.842 5.6907-24.344 5.4062-3.1168-0.10065-6.3604-0.42876-9.4375-0.875-2.8026-0.52187-5.0985-1.9808-7.375-3.6562-0.28245-0.67931-0.50262-1.364-0.6875-2.0625 4.5281 4.9659 11.539 4.9356 17.688 5.4375 9.0132 0.30153 17.502-1.722 25.156-5.75zm-28.5 0.21875 10.375 0.5-0.5 1.25-10.312-0.53125zm15.938 0.71875 5.1562 0.25c-1.4675 0.4502-2.9797 0.84766-4.5312 1.1875l-1.125-0.0625zm-25.219 0.3125 4.1875 0.25-0.4375 1.0938c-1.322-0.35624-2.5759-0.80867-3.75-1.3438zm8.7188 0.5 10.312 0.53125-0.5 1.1875c-1.4315 0.13795-2.8531 0.2553-4.2188 0.28125-2.1044 0.04-4.2026-0.05914-6.2188-0.3125zm27.844 0.03125c-0.49535 0.68992-1.0238 1.3917-1.625 2.0625-5.6728 2.5251-11.906 4.0381-18.25 4.3438-6.2267 0.5948-12.411-0.0079-18.094-2.6875-0.6813-0.33289-1.3263-0.72406-1.9375-1.1562-0.40633-0.59375-0.73505-1.1974-1-1.8125 4.4726 4.3243 10.965 4.1369 16.75 4.5 8.624 0.28852 16.764-1.5624 24.156-5.25zm-1.8125 2.2812c-0.52439 0.5692-1.0928 1.1242-1.6875 1.625-3.4137 1.3551-8.8478 2.6382-10.688 2.9375-1.8397 0.29929-9.5967 0.81785-12.955 0.46484-3.3584-0.35301-10.334-1.8203-11.857-3.5898-0.30778-0.3363-0.56859-0.68625-0.8125-1.0312 0.49592 0.37685 1.6617 1.1297 2.1934 1.4297 5.4248 2.5878 12.208 2.8891 18.213 2.4395 6.1808-0.33009 12.082-1.8379 17.594-4.2754zm-2.7812 2.2188c-2.5892 1.1101-5.183 1.9004-7.8125 2.2188 2.6712-0.52474 5.2812-1.27 7.8125-2.2188z"/>
</g>
</g>
</g>
</svg>
